<?xml version="1.0" encoding="UTF-8"?>
<svg id="Layer_2" data-name="Layer 2" xmlns="http://www.w3.org/2000/svg" viewBox="0 0 1302.38 1123.24">
  <defs>
    <style>
      .cls-1 {
        fill: #19489d;
      }
    </style>
  </defs>
  <g id="Layer_1-2" data-name="Layer 1">
    <path class="cls-1" d="M275.84,436.62l69.95,150H69.95L0,436.62H275.84Zm375.35,331.69h0s-14.78-31.69-14.78-31.69l-23.32-50-23.32-50-23.32-50-69.95-150h-165.51l69.95,150,23.32,50,23.32,50,23.32,50,69.95,150,27.58,59.16,20.74,44.48,22.15,47.5h0l39.86,85.48,39.86-85.48h0l22.15-47.5,20.74-44.48h0s-27.58-59.16-27.58-59.16l-55.17-118.31Zm226.91-131.69l23.32-50h331.01l69.95-150h-496.52l-69.95,150-23.32,50-23.32,50-10.51,22.54,12.81,27.46,69.95,150h331.01l69.95-150,23.32-50v-50h-142.19l-23.32,50-23.32,50h-165.51l23.32-50,23.32-50Zm-226.91-136.62l44.19-205.81,205.81-44.19-205.81-44.19L651.19,0l-44.19,205.81-205.81,44.19,205.81,44.19,44.19,205.81Z"/>
  </g>
</svg>