<?xml version="1.0" encoding="utf-8"?>
<!-- Generator: Adobe Illustrator 27.0.0, SVG Export Plug-In . SVG Version: 6.00 Build 0)  -->
<svg version="1.1" id="Layer_2_00000137822524219151007530000000131049006862007433_"
	 xmlns="http://www.w3.org/2000/svg" xmlns:xlink="http://www.w3.org/1999/xlink" x="0px" y="0px" viewBox="0 0 1302.4 1123.2"
	 style="enable-background:new 0 0 1302.4 1123.2;" xml:space="preserve">
<style type="text/css">
	.st0{fill:#FFFFFF;}
</style>
<g id="Layer_1-2">
	<path class="st0" d="M275.8,436.6l69.9,150H69.9L0,436.6H275.8z M651.2,768.3L651.2,768.3l-14.8-31.7l-23.3-50l-23.3-50l-23.3-50
		l-70-150H331l70,150l23.3,50l23.3,50l23.3,50l70,150l27.6,59.2l20.7,44.5l22.2,47.5l0,0l39.9,85.5l39.9-85.5l0,0l22.2-47.5
		l20.7-44.5l0,0l-27.6-59.2L651.2,768.3L651.2,768.3z M878.1,636.6l23.3-50h331l69.9-150H805.9l-70,150l-23.3,50l-23.3,50
		l-10.5,22.5l12.8,27.5l70,150h331l69.9-150l23.3-50v-50h-142.2l-23.3,50l-23.3,50H831.5l23.3-50L878.1,636.6L878.1,636.6z
		 M651.2,500l44.2-205.8L901.2,250l-205.8-44.2L651.2,0L607,205.8L401.2,250L607,294.2L651.2,500L651.2,500z"/>
</g>
</svg>
